<svg version="1" xmlns="http://www.w3.org/2000/svg" width="1200" height="1200" viewBox="0 0 900.000000 900.000000"><path d="M569.1 95.7c-1.8 1.2-2.2 1.3-1.6.2.8-1.2.6-1.2-.8 0-1 .8-2 1.1-2.4.8-.3-.4-1.2-.2-1.9.3-.6.6-2.1 1.3-3.3 1.5-1.2.3-3.1.8-4.3 1.1-1.3.3-3.3.6-4.5.7-1.3.1-2.3.5-2.3 1.1 0 .5-.3.6-.7.3-.3-.4-1.3-.1-2.1.6-1.3 1-1.4.9-.7-.3.7-1.1.2-1-1.9.4-1.7 1.1-2.5 1.3-2 .5.6-1.1.2-1-1.6.1-1.4.9-3.5 1.5-4.7 1.4-1.3-.1-2.3.3-2.3.9 0 .6-.3.7-.7.4-.3-.4-1.5.1-2.6 1-1.5 1.3-1.8 1.4-1.2.3.5-.9-.1-.7-1.5.5-1.3 1.1-2 1.3-1.5.6.5-.8-.7-.4-2.5.9s-3 1.7-2.5.9c.5-.7-.2-.5-1.5.6s-2 1.3-1.5.6c.5-.8-.7-.4-2.5.9s-3 1.7-2.5.9c.5-.7-.2-.5-1.5.6s-2 1.4-1.5.6c.5-.9-.1-.7-1.9.4-1.4 1-2.6 1.4-2.6 1 0-.5-1 0-2.2 1.1-1.3 1.2-1.8 1.3-1.3.4s-.1-.7-1.5.5c-1.3 1.1-2 1.4-1.5.6.9-1.6-.7-.8-3.9 1.8-1.6 1.3-1.8 1.3-1.1.1.5-.9-.1-.7-1.5.5-1.3 1.1-2 1.3-1.5.6.5-.8-.7-.4-2.5.9s-3 1.7-2.5.9c.5-.7-.2-.5-1.5.6-1.4 1.2-2 1.4-1.5.5.5-.9 0-.8-1.3.4-1.2 1.1-2.5 1.6-2.9 1.3-.3-.4-1.5.1-2.6 1-1.5 1.3-1.8 1.4-1.2.3.5-.9 0-.8-1.3.4-1.2 1.1-2.5 1.6-2.9 1.3-.3-.4-1.5.1-2.6 1-1.5 1.3-1.8 1.4-1.2.3.5-.9-.1-.7-1.5.5s-2 1.4-1.5.5c.5-.9 0-.8-1.3.4-1.2 1.1-2.5 1.6-2.9 1.3-.3-.4-1.5.1-2.6 1-1.5 1.3-1.8 1.4-1.2.3.5-.9-.1-.7-1.5.5-1.3 1.1-2 1.4-1.6.8.5-.9.2-1.1-.8-.7-.9.3-1.3 1.1-.9 1.7.4.6 0 .8-1 .4-1-.3-1.7-.2-1.7.4 0 .6-.4.7-1 .4-.5-.3-1-.2-1 .3 0 .6-1.1 1.3-2.5 1.6-1.4.4-2.3 1-2 1.5.6 1.1-2.3 2.3-3.6 1.5-.5-.3-.9-.1-.9.4 0 .6-1.1 1.3-2.5 1.6-1.4.4-2.3 1-2 1.5.6 1.1-2.3 2.3-3.6 1.5-.5-.3-.9 0-.9.5 0 .6-.3 1-.7.9-1.4-.3-4.3 1.4-3.8 2.2.6 1-2.4 2.2-3.6 1.4-.5-.3-.9 0-.9.6s-.4.8-1 .5c-.5-.3-1-.1-1 .4 0 .6-.7 1.1-1.6 1.1-.8 0-1.3.4-1 .9.4.5-.5.8-1.9.7-1.3-.2-2.3 0-2 .4.2.4-.8.7-2.3.8-1.5.1-4.4.3-6.4.4-2.1.2-3.8.6-3.8 1s-.7.5-1.5.2-2.7.3-4.2 1.3c-4.7 3.3-5.7 3.8-4.8 2.3.5-.8-.7-.4-2.7.8-1.9 1.2-3.9 1.8-4.3 1.4-.5-.4-.5-.2-.2.4.4.6-.5 1.6-1.9 2.3-1.8.8-2.3.8-1.8 0 .4-.7-.3-.6-1.7.2-1.3.7-2.7 1.2-3.1 1.1-.5-.1-.8.2-.8.8 0 .5-1 1.4-2.1 2.1-1.7.8-2 .8-1.4-.1.4-.7-.4-.5-1.7.4-1.4.9-2.8 1.3-3.1.9-.4-.3-.7-.1-.7.5s-1 1.6-2.1 2.3c-1.7.9-2 .8-1.3-.3.6-.9.1-.8-1.6.3-1.4.9-3.8 2.4-5.5 3.5-2 1.3-2.6 1.4-2 .5.5-.9-.5-.7-2.7.7-1.9 1.2-3.8 1.9-4.1 1.5-.4-.3-.7-.1-.7.5s-1 1.6-2.1 2.3c-1.6.8-2 .8-1.4-.1.5-.9.1-.8-1.6.1-1.3.7-2.7 1.2-3.1 1.1-.5-.1-.8.2-.8.8 0 .5-1 1.4-2.1 2.1-1.7.8-2 .8-1.4-.1.4-.7-.4-.5-1.7.4-1.4.9-2.8 1.3-3.1.9-.4-.3-.7-.1-.7.5s-1 1.6-2.1 2.3c-1.7.9-2 .8-1.3-.2.4-.7-.8-.3-2.8.9-1.9 1.2-3.9 1.8-4.3 1.4-.5-.4-.5-.2-.2.4.4.6-.5 1.6-1.9 2.3-1.8.8-2.3.8-1.8 0 .3-.6-.5-.3-2 .6-1.4 1-2.6 1.4-2.6.9 0-.4-.7.1-1.6 1.2-.8 1-1.3 1.3-.9.7.4-.9.1-1.1-.9-.7-.9.3-1.3 1-1 1.5.3.5-.1.6-.9.3s-1.8 0-2.2.5c-.3.6-1.1.9-1.6.6-.5-.4-.9-.2-.9.4 0 .6-1 1.5-2.1 2.2-1.7.8-2 .8-1.4-.1.4-.7-.4-.5-1.7.4-1.4.9-2.8 1.3-3.1.9-.4-.3-.7-.1-.7.5s-1 1.6-2.1 2.3c-1.7.9-2 .8-1.3-.3.5-.8-.1-.7-1.9.4-1.5 1-3.9 2.6-5.4 3.5-2 1.3-2.5 1.4-1.8.4.5-.9-.6-.6-2.8.8-2 1.2-3.7 1.9-3.7 1.5 0-.4-.7.1-1.6 1.2-.8 1-1.2 1.3-.8.5.5-1-.5-.7-2.8.7-1.9 1.2-3.8 1.9-4.1 1.5-.4-.3-.7-.1-.7.5s-1 1.6-2.1 2.3c-1.7.8-2 .8-1.4-.1.4-.7-.4-.5-1.7.4-1.4.9-2.8 1.3-3.1.9-.4-.3-.7-.1-.7.5s-1 1.6-2.1 2.3c-1.7.9-2 .8-1.3-.3.5-.8-.1-.7-1.9.4-1.5 1-3.9 2.6-5.4 3.5-1.8 1.2-2.4 1.3-1.9.4.7-1 .4-1.2-1.3-.6-1.5.4-2.1.3-1.9-.7.2-.8-.4-1.2-1.5-1-1 .2-1.6-.3-1.5-1 .2-.8-.4-1.2-1.5-1-1 .2-1.6-.3-1.5-1 .2-.8-.4-1.2-1.6-1-1.1.2-1.5-.1-1.1-.7.3-.6-.1-1.1-.9-1.1-.9 0-1.6-.5-1.6-1.1 0-.5-.5-.7-1-.4-.6.3-1.3 0-1.6-.9-.3-.8-1.2-1.2-2-.9-.9.3-1.4 0-1.2-.8.2-.9-.4-1.3-1.5-1.1-1 .2-1.6-.3-1.5-1 .2-.8-.4-1.2-1.6-1-1.1.2-1.5-.1-1.1-.7.3-.7-.3-1.1-1.5-1.1s-1.8-.5-1.5-1c.3-.6-.3-1-1.4-1-1.2 0-2.6-.9-3.3-1.9-.6-1-1.8-1.7-2.5-1.4-.8.3-1.3 0-1.1-.8.2-.9-.4-1.3-1.5-1.1-1 .2-1.6-.3-1.5-1 .2-.8-.4-1.2-1.6-1-1.1.2-1.5-.1-1.1-.7.3-.7-.3-1.1-1.5-1.1s-1.8-.5-1.5-1c.3-.6-.1-1-.9-1-.9 0-1.6-.5-1.6-1.1 0-.5-.5-.7-1-.4-.6.3-1.3 0-1.6-.9-.3-.8-1.2-1.2-2-.9-.9.3-1.4 0-1.2-.8.2-.9-.4-1.3-1.5-1.1-1 .2-1.6-.3-1.5-1 .2-.8-.4-1.2-1.6-1-1.1.2-1.5-.1-1.1-.7.3-.7-.3-1.1-1.5-1.1s-1.8-.5-1.5-1c.3-.6-.1-1-.9-1-.9 0-1.6-.5-1.6-1.1 0-.5-.5-.7-1-.4-.6.3-1.3 0-1.6-.9-.3-.8-1.2-1.2-2-.9-.9.3-1.4 0-1.2-.8.2-.9-.4-1.3-1.5-1.1-1 .2-1.6-.3-1.5-1 .2-.8-.4-1.2-1.5-1-1 .2-1.6-.3-1.5-1 .2-.8-.4-1.2-1.6-1-1.1.2-1.5-.1-1.1-.7.3-.6-.1-1.1-.9-1.1-.9 0-1.6-.5-1.6-1.1 0-.5-.4-.8-.9-.5-.5.3-1.1-.1-1.5-.9-.3-.8-1.2-1.2-2.1-.9-1 .4-1.5.2-1.3-.7.2-.9-.4-1.3-1.5-1.1-1 .2-1.6-.3-1.5-1 .2-.8-.4-1.2-1.5-1-1 .2-1.6-.3-1.5-1 .2-.8-.4-1.2-1.6-1-1.1.2-1.5-.1-1.1-.7.3-.6.1-1.1-.5-1.1s-2-.9-3.2-2c-1.2-1-2.4-1.7-2.8-1.5-.5.3-1-.2-1.4-1-.3-.8-1.2-1.2-2.1-.9-1 .4-1.5.2-1.3-.7.2-.9-.4-1.3-1.5-1.1-1 .2-1.6-.3-1.5-1 .5-2.3-3.6-.8-6.7 2.5-1.6 1.7-2.3 2.7-1.5 2.1.9-.5.2.3-1.5 1.8-1.6 1.5-3.5 2.8-4.1 2.8-.5 0-2.3 1.4-4 3.2-1.6 1.8-2 2.6-.9 1.9 1.1-.8.2.2-2 2.2-2.2 1.9-4.3 3.3-4.6 3.1-.3-.2-1.9 1.1-3.5 2.8-1.7 1.9-2.1 2.7-.9 1.9 1.1-.8.2.2-2 2.2s-4.5 3.6-5.2 3.7c-.6 0-3.1 2.2-5.4 5-2.3 2.7-4.8 5-5.5 5-.7 0-3 2-5.1 4.5-2 2.5-4.2 4.5-4.8 4.5-1.6 0-7.2 6.1-8 8.7-.3 1.3-1.1 2.3-1.6 2.3-.6 0-.7.4-.4 1 .3.5.1 1-.5 1s-.8.4-.5 1c.3.5.1 1-.5 1s-.9.4-.5.9c.7 1.3-1.6 6.2-2.6 5.5-.5-.3-.9.1-.9.9 0 2.5-4 6.1-6.8 6.2-4 .1-4.9 1.1-4.9 4.9.1 1.9-.5 4.1-1.2 5-.8.9-1.1 1.9-.9 2.2.3.3.2 2.1-.2 4-.5 2-.4 3.4.2 3.4.5 0 .7.4.4.9-.3.5.1 1.4.9 2.1.8.7 1.2 1.6.9 2.1-.3.5.2.9 1.1.9.9 0 1.3.4 1 1-.3.5.1 1 .9 1 .9 0 1.6.4 1.6 1 0 .5.3.9.8.9 1.9-.3 3.3.2 2.7 1.1-.3.5.3 1 1.5 1s1.8.4 1.5 1c-.3.5.3 1 1.5 1s1.8.4 1.5 1c-.3.5.3 1 1.4 1 1.2 0 2 .6 1.8 1.2-.1.8.6 1.2 1.6 1 1-.2 1.6.3 1.5 1-.2.8.4 1.2 1.5 1 1-.2 1.6.3 1.5 1-.2.8.4 1.2 1.5 1 1-.2 1.6.3 1.5 1-.2.8.4 1.2 1.5 1 1-.2 1.6.3 1.5 1-.2.8.4 1.2 1.5 1 .9-.2 1.6.1 1.5.5-.2.4.1.8.5.8.5 0 1.3.8 1.8 1.8.6.9 1.4 1.5 2 1.2.5-.4 1.2.1 1.5.9.3.9 1 1.4 1.4 1.1.4-.3 1 .2 1.4 1 .3.8 1.2 1.5 2.1 1.5.8 0 1.5.4 1.5 1 0 .5.3.9.8.9 1.9-.3 3.3.2 2.7 1.1-.3.5.3 1 1.4 1 1.2 0 2 .3 1.8.7-.1.5.2.8.6.8 1.3 0 2.9 3.4 2.2 4.5-.3.6-.1 1 .4 1 .6 0 1 .3.9.7-.3 1.4 1.4 4.3 2.2 3.8 1-.6 2.2 2.4 1.4 3.6-.3.5 0 .9.5.9.6 0 1 .3.9.7-.3 1.4 1.4 4.3 2.2 3.8 1-.6 2.2 2.4 1.4 3.6-.3.5 0 .9.5.9.6 0 1 .3.9.7-.3 1.4 1.4 4.3 2.2 3.8 1-.6 2.2 2.4 1.4 3.6-.3.5 0 .9.6.9s.8.4.5 1c-.3.5-.2 1 .3 1 .6 0 1.3 1.1 1.6 2.5.4 1.6 1.1 2.3 1.8 1.9.8-.5.9-.2.5.9-.3 1-.2 1.7.4 1.7.6 0 .7.4.4 1-.3.5-.2 1 .3 1 .6 0 1.3 1.1 1.6 2.5.4 1.4 1 2.3 1.5 2 1.1-.6 2.3 2.3 1.5 3.6-.3.5-.1.9.4.9.6 0 1.3 1.1 1.6 2.5.4 1.6 1.1 2.3 1.8 1.9.8-.5.9-.2.5.9-.3 1-.2 1.7.4 1.7.6 0 .7.4.4 1-.3.5-.2 1 .3 1 .6 0 1.3 1.1 1.6 2.5.4 1.6 1.1 2.3 1.8 1.9.8-.5.9-.2.5.9-.3 1-.2 1.7.4 1.7.6 0 .7.4.4 1-.3.5-.2 1 .3 1 .6 0 1.3 1.1 1.6 2.5.4 1.6 1.1 2.3 1.8 1.9.8-.5.9-.2.5.9-.3 1-.2 1.7.3 1.7.6 0 .9.6.7 1.2-.1.7.4 1.2 1.1 1 .8-.1 1.1.2.7.8-.4.6-.1 1.8.7 2.7 1.1 1.4 1.1 1.6-.2.8-1.1-.7-1-.2.4 1.9 1.1 1.7 1.3 2.5.5 2-.9-.5-.7.3.5 2 1.1 1.7 1.3 2.5.5 2-.9-.5-.7.3.5 2 1.1 1.7 1.3 2.5.5 2-1.1-.6-1.1-.5 0 .9.8 1 1.1 2 .8 2.4-.4.3-.2 1.2.3 1.9.6.6 1.3 2.1 1.5 3.3.3 1.2.8 3.1 1.1 4.3.3 1.3.6 3.3.7 4.5.1 1.3.5 2.3.9 2.3s.7.3.7.7c-.3 2 .2 3.1 1.7 3.7 1 .4 1.3.2.8-.6s-.2-.9 1-.5c.9.4 1.5.3 1.2-.2-.3-.5.1-1.2 1-1.5 1-.4 1.3-.2.8.7-.4.6.3.3 1.6-.8s2-1.5 1.7-.8c-.5.7.3.6 2.2-.3 2.4-1.2 4.2-1.3 9.2-.5 3.4.6 6.6.8 7 .5.5-.3.9 0 .9.7s.3.9.7.6c.3-.4 1.3-.1 2.1.6 1.3 1 1.4.9.7-.3-.4-.8.4-.4 1.9 1s3.1 2.5 3.4 2.5c1.2 0 1.1 3-.1 5.7-.6 1.6-1.8 2.8-2.5 2.8s-1.1.4-.8.9c.3.5-.2.8-1.2.7-.9 0-1.6.5-1.5 1.1.2.7-.4 1.3-1.3 1.3-1.4 0-7.2 5.2-7.3 6.5-.1.3-.1.8-.2 1.2-.9 6.3.3 8.3 4.5 7.9 1.8-.2 3.9-.7 4.6-1.1.9-.6 1.1-.4.5.6-.7 1.1-.6 1.2.7.2.8-.7 1.7-1.1 2-.8.3.3 1.7-.6 3.1-1.9 1.4-1.3 2.8-2.1 3.1-1.8.3.3.6-.2.6-1.2 0-.9.3-1.5.8-1.2.4.2 1.2-.7 1.9-2 .8-1.8.8-2.2 0-1.7-.7.3-.3-.4.8-1.7 1.2-1.4 1.4-2 .5-1.5-1 .6-1 .2.3-1.2 1-1.1 1.7-2.5 1.5-3.1-.2-.6.6-1.8 1.7-2.7 1.1-.9 1.4-1.4.8-1-.7.3-1.3.4-1.3 0 0-.8 4.9-2.7 8.5-3.2 5.1-.7 8.5-.9 8-.4-.3.2.7 1.8 2.2 3.4 1.6 1.7 2.1 2.6 1.3 2.2-1.3-.8-1.3-.6-.2.8.8.9 1.1 2.1.7 2.7-.3.5-.1 1 .6 1s.9.3.6.6c-.3.4-.2 1.6.4 2.7.8 1.4.8 1.8 0 1.3-1.1-.7-.5 2 1 3.9.4.5.7 1.4.7 1.8 0 .5.4 1.2.8 1.5.4.4.4.1-.1-.7-.5-.9-.4-1.2.3-.7.7.4 1.2 1.3 1.2 1.9 0 1.8 5.2 1.5 6.8-.3 1.2-1.3 1.3-1.3.6 0-.7 1.3-.5 1.3.9.1.9-.7 1.7-1 1.7-.6 0 .5.9 0 2-1 1.3-1.2 2-1.4 2-.5 0 .7.7 1 1.6.6 1.3-.5 1.5.1 1 4.4-.3 2.8-1 5.9-1.7 7.1-.7 1.4-.8 4.6-.4 9.3 1.4 13.8 1.5 14.6 3.3 16.4 1.7 1.9 8.2 2.3 8.2.6 0-.7.5-1.6 1.2-2 .7-.5.8-.3.3.7-.8 1.2-.6 1.2.8 0 .9-.7 1.7-1.9 1.7-2.7 0-.7.9-1.8 2.1-2.4 1.1-.7 1.8-1.4 1.5-1.7-.9-.9 2.4-4.3 4.1-4.3.8 0 1.2-.4.9-.8-.3-.5.5-.8 1.7-.7 1.6.1 2.3.9 2.5 2.9.2 1.5 0 3.5-.4 4.4-.4 1-.6 2.1-.5 2.6.1.4-.4 1.5-1.1 2.4-1.1 1.3-1.1 1.4.2.7.9-.5.7.1-.5 1.5-1.3 1.5-1.5 2.1-.5 1.6.8-.4.7-.1-.3.7-1 .8-1.6 2.1-1.5 2.8.2.7-.3 1.3-1.1 1.4-.8 0-1.9 1.5-2.3 3.3-.5 1.8-1.3 3-1.7 2.7-.5-.3-1.2.2-1.5 1.1-.4 1-.2 1.3.7.8.9-.6.9-.4.1.7-1.4 1.8-1.1 6.4.4 6.5.7.1 1.3.3 1.5.4.2.3 1.9.6 6.9 1.3 1.5.2 3.8 1.2 5 2.3 1.2 1 1.8 1.3 1.3.5-.5-1-.4-1.2.3-.7.7.4 1.2 1.2 1.2 1.8 0 .7 1 2.3 2.3 3.6 1.2 1.4 1.5 2.2.7 1.7-1.2-.6-1.3-.5-.2.6 1.5 1.6 1.6 4.9.1 4.9-.5 0-.8.4-.5.9.3.5-.1 1.2-1 1.5-2.1.8-2.6.8-2-.2.3-.5-.2-.9-1-.9-1.8 0-4.2 3.3-4.7 6.2-.1 1.1-.7 2.6-1.1 3.4-.7 1-.5 1.2.5.7.8-.4.5 0-.5.8-1.1.9-1.6 1.6-1 1.6.5 0 0 .7-1.1 1.6-1.1.8-1.9 1.7-1.7 1.9.6 1.2.1 2.5-1 2.2-.7-.1-1.3.5-1.3 1.3-.2 2.5-1.7 5-2.6 4.4-.5-.3-.9-.2-1 .3-.6 5.8-.4 7.1.9 6.9.8-.2 2-1 2.7-1.9.7-.9 1.4-1.5 1.6-1.3.2.2 1.5-1.1 2.9-2.8l2.4-3.1-2.4 2-2.5 1.9 2.1-2.3c1.9-2 3-2.3 9.5-2.2 9.8.2 11.9.4 11.9 1.3 0 .4.9.5 2 .3s2 .1 2 .7.3.8.7.5c.3-.4 1.2-.2 1.9.3.6.6 1.6 1 2 .9 2.7-.6 4.1 1.3 3.7 5.4-.2 2.3-.6 4.8-.8 5.5-.3.7 0 1 .5.7.6-.3 1-.1 1 .5s.5.8 1 .5c.6-.4 1.8-.1 2.7.7 1.4 1.1 1.6 1.1.9-.2-.4-.8.2-.4 1.3 1s2.1 2.1 2.1 1.6.6-.3 1.4.3c1.5 1.3 1.8 5.8.5 6.7-.5.3-.7.9-.5 1.3.3.4.1 2.4-.4 4.5-.6 2.9-.5 3.9.6 4.3.8.3 1.1.9.8 1.4-.3.5.4.9 1.6.9 1.2 0 1.9.4 1.6.9-.4.5.4.7 1.6.3 1.6-.4 1.9-.2 1.3.9-.5.8-.5 1.1 0 .7.4-.4 1.5-.2 2.3.5 1.3 1 1.4.9.7-.3s-.6-1.3.7-.3c.8.7 1.9.9 2.3.5.5-.4.4-.1 0 .7-.6 1.1-.4 1.3.9.8 1-.4 1.5-.3 1.1.3-.3.6-.3 1 .2 1.1.4 0 1.8.2 3 .3 1.3.2 2.1.1 1.9-.2-.7-.6 1.8-3.1 2.5-2.6.6.3 2.1-5.5 1.9-7.1 0-.3.7-1.9 1.6-3.6.9-1.8 1.1-2.8.4-2.4-.9.5-.9.2-.1-1.4.6-1.2 1.6-3 2.1-4.1.5-1.1 1-2.5 1-3.2 0-1.7 4.4-3.7 7.5-3.3 1.4.1 2.5-.2 2.5-.8 0-.6.3-.7.7-.4.3.4 1.3.1 2.1-.6 1.3-1 1.4-.9.7.3-.8 1.3-.6 1.3.7.2 1.9-1.5 5.2-.3 6.2 2.3.3.9 1.1 1.3 1.7.9.8-.5.9-.3.5.5-.5.7-.1 2 .6 2.9 2.5 2.9 3.3 4.6 1.7 3.7-.8-.5-.5.2.6 1.5s1.4 2 .8 1.6c-.9-.5-1.1-.2-.7.8.7 1.8.8 1.8 4.7 2.1 1.6.1 2.7-.3 2.7-1.1 0-.7.5-1.6 1.2-2 .7-.5.8-.3.3.7-.5.8.1.6 1.3-.4 1.1-1.1 1.8-2.5 1.6-3.2-.3-.7 0-1.6.7-2.1.8-.5 1-.3.4.6-.5.9-.4 1.1.3.6.7-.4 1.2-1.6 1.2-2.7s.5-1.7 1-1.4c.6.3 1.4-.4 1.9-1.7.9-2.5 5.1-6.7 5.1-5.2 0 .5.4.3.9-.5.8-1.2 1.2-1.2 2.5-.2.9.8 1.6 1 1.7.5 0-.5.5.2 1.1 1.6.6 1.4 1 2.8 1 3.2-.1.5.2.8.8.8.5 0 .9.8.8 1.7-.8 9.5 1.9 13.5 9 13.7 2.3 0 4.2-.3 4.2-.8 0-.4 1.7-.5 3.8-.1 5.2 1.1 10.1 1.2 9.6.3-.4-.7 1.5-1.2 3.7-1 .3 0 .5-.9.6-2.1.2-6.5.8-10.5 1.4-10.1.5.3 1.6-.7 2.5-2.1.9-1.3 2-2.2 2.5-1.9.5.3 1.4.2 2.1-.2 1.5-.9 7.8-1.1 7.8-.2 0 .4.6.5 1.4.2.8-.3 1.9.3 2.6 1.5.6 1.2 1.6 2.1 2.3 2.1.7 0 2 1.4 2.9 3.1 1 1.6 1.3 2.7.7 2.3-.8-.4-.8-.1 0 1.3 1.1 2.2.1 7.8-1.5 7.8-.5 0-.8.4-.6.8.1.5-2.2.7-5.2.6-6.3-.3-11 2-9.9 4.8.4.9.2 1.4-.3 1-.6-.3-1.1.4-1.2 1.6 0 1.2-.4 4.4-.7 7.2-.4 2.7-.7 5.8-.8 6.7-.1 1-.5 1.8-1 1.8-.4 0-.6.4-.2.9.3.5.2 1.2-.3 1.5-.8.4-.8 12.3 0 15.9.6 2.7 2.5 4.1 4.5 3.2 1-.5 2-.9 2.3-.9 1.7-.4 3-2 3-3.8 0-1.2.3-1.8.7-1.5 1.1 1.1 3.2-1.4 2.6-3-.4-1.1-.2-1.4.5-.9 1.1.7 1.7-.6 1.3-2.7-.1-.5.3-.6.9-.2.5.3 1 .2 1-.3 0-.6.7-1.3 1.6-1.6.9-.4 1.3-.2.8.5-.4.8 0 .8 1.4 0 2.6-1.4 17-.5 19.1 1.2 1.2 1 1.3.9.7-.3-.4-.9-.2-.8.7.2.8 1 1.6 1.5 1.9 1.3.3-.3 1.3.4 2.3 1.5 1 1.1 1.4 2 1 2-.5 0 0 .7 1.1 1.6 1 .8 1.3 1.2.6.9-1.1-.6-1.1-.3 0 1.4s1.1 2.5 0 4.2c-.9 1.4-1 1.9-.2 1.4.9-.6.9-.2.1 1.4-1.2 2.2-2.7 3-1.6.8.4-.6-.1-.3-1 .8s-2.1 2-2.8 2c-.7.1-1.1.7-.9 1.4.2.8-.3 1.1-1.3.8-.8-.4-1.5-.1-1.5.5s-.3.8-.7.5c-1.1-1.2-5.2 3.4-4.6 5.1.4.8.2 1.3-.3.9-.6-.3-1 .7-.9 2.4 0 1.6.3 2.9.7 2.9.5 0 .8.7.8 1.6 0 .8.4 1.2 1 .9.6-.3 1 .3 1 1.4 0 1.2.5 2.1 1 2.1.6 0 1 .4 1 1 0 .5.8 1.9 1.8 2.9.9 1.1 2.2 2.6 2.8 3.4 1 1.2 3.2 1.3 12.2.5.6-.1 1.2-.5 1.2-1 0-.4.7-.8 1.6-.8.9 0 1.2-.5.8-1.2-.5-.7-.2-.9.9-.5.9.3 1.8 0 2.1-.9.3-.9.9-1.3 1.3-1.1 1.6 1 6.8-5.8 6.6-8.6-.1-1.5.1-2.7.5-2.7s.7-3.5.6-7.8c0-8.4.3-10.5 1.7-9.6.5.3 1.2-.2 1.5-1.1.5-1.3.9-1.2 2.6.7 1.1 1.3 2.4 2.2 2.9 2.1.9-.3 1.1.2 1.3 2.9.1.7.7 1.8 1.4 2.3 1.9 1.5 2.4 10.5.6 11.2-.8.3-1.1.9-.8 1.4.3.5.1.9-.4.9s-2.1 1.1-3.6 2.5c-1.4 1.3-2.6 2.1-2.6 1.8 0-.3-.7 0-1.5.7s-1.2 1.6-.9 2.1c.3.5-.4.9-1.6.9-1.2 0-1.9.4-1.6.9.3.5-.1 1.2-.9 1.5-.8.3-1.5.9-1.4 1.3.1.4.1 1 0 1.3-.6 1.5-.5 9 .1 9 .3 0 .4.8.1 1.8-.2 1 .5 2.9 1.7 4.3 1.2 1.3 1.8 1.8 1.4 1-.5-.9-.3-1.2.4-.7.7.4 1.2 1.6 1.2 2.7s.4 1.7 1 1.4c1.5-.9.2 7.5-1.6 10.2-.8 1.3-1.2 2.3-.9 2.3.3 0 0 .6-.7 1.4-.7.8-1.6 1.2-2 .9-.5-.2-.8.1-.8.6 0 .6-.7 1.1-1.5 1.1-1.6 0-2.3 3.2-2.9 13-.3 4 0 7 .7 7.9 1 1.2.9 1.3-.3.6-1.2-.7-1.3-.6-.3.6.6.8 1 2.1.8 2.9-.8 3.9-1.8 6-2.7 6-.5 0-.6.4-.3 1 .3.5.1 1-.5 1s-.8.5-.5 1c.4.6.1 1.8-.6 2.7-1.4 1.7-1.9 11.4-.6 10.6.5-.3.7.6.5 2-.1 1.4.5 3.3 1.4 4.4.9 1 1.7 2.1 1.7 2.5.1.5.4.7.7.5.3-.1 1 .5 1.5 1.5.6 1 1.6 1.4 3.1 1 1.1-.3 1.9-.1 1.6.4-.4.5.7 1 2.3 1.1 1.6.1 2.9-.2 2.9-.8 0-.6.4-.8.9-.4.6.3.8-.6.5-2.2-.3-1.6-.6-3.7-.6-4.8-.1-1.1-.6-2.6-1.2-3.4-.9-1.2-.8-1.3.4-.6.9.5.7-.1-.5-1.5s-1.4-2-.5-1.5c.9.5.7-.1-.5-1.5s-1.4-2-.5-1.5c1.1.7 1 .2-.4-1.9-1-1.6-1.3-2.5-.6-2.1.9.6.9.2 0-1.5-1.8-3.3-.5-5.3 3-4.8 2.2.3 3.1 0 3.6-1.4.3-1 1-1.6 1.5-1.3.5.4.9-.3.9-1.4 0-1.8 3.8-5.1 4.1-3.6.1.3.2 1.1.3 1.7.1.7.8 1.2 1.5 1 .8-.2 1.1.3.8 1.3-.4.8-.2 1.5.4 1.5.6 0 .7.4.4 1-.3.5-.2 1 .4 1 .6 0 1.8 1.4 2.7 3.1.9 1.8 1.1 2.8.4 2.4-.8-.5-.8 0 .1 1.6.7 1.3 1.2 2.7 1.1 3.2-.1.4.2.7.8.7.5 0 1.4 1 2.1 2.1.9 1.7.8 2-.2 1.3-.7-.4-.3.8.9 2.8 1.2 1.9 1.9 3.8 1.5 4.1-.3.4-.1.7.6.7s.9.4.6 1c-.3.5-.2 1 .3 1s1.2.9 1.5 2c.3 1.1 1.4 2 2.4 2 1.8 0 5.3-3.2 5.3-4.8 0-.4.9-1.3 2-2 1.2-.7 1.8-1.7 1.5-2.3-.4-.5-.1-.8.7-.7.7.2 1.2-.2 1.1-.8-.1-.6 1.4-1.1 3.7-1.1 2.2 0 3.7.4 3.4.8-.2.4.4 1 1.5 1.4 1.1.3 2.5 1.3 3.3 2.2 1.1 1.4 1.1 1.6-.2.8-1.2-.7-1.3-.6-.3.7.7.8 1 1.8.6 2.1-.3.4-.2.7.4.7.5 0 1 .6 1.1 1.2.7 5.1 1 6.1 2.5 7 .9.5 1.7 1.8 1.7 2.9 0 1.3.4 1.8 1.2 1.3.7-.4.8-.3.4.4-.4.6-.1 2.4.7 3.9.7 1.5 1.3 3.5 1.2 4.3-.1.8.3 2.1.9 2.8 1 1.4 1.1 2.2 1.6 11.2.2 3 1.1 6.6 1.9 8 1.4 2.1 1.4 2.3.1 1.5-.9-.5-.7.1.5 1.5 1.1 1.3 1.4 2 .7 1.6-1.2-.7-1.2-.4-.1 1.5.7 1.3 1.2 2.8 1 3.4-.1.5 0 .7.4.3.4-.3 1.5.2 2.6 1.3s2.5 1.7 3 1.3c1.6-1 4.9-8.7 4.2-9.8-.3-.5-.1-.6.5-.2.7.4 1.2.1 1.2-.8 0-.8.6-2.1 1.3-2.8 1.7-1.9 2.5-5.1 2.6-12 .1-2 .7-4.3 1.4-5 .8-.7 1.2-1.9.9-2.6-.2-.6.1-1.2.7-1.2s1-.3 1-.8c-.4-2.3.2-5.2 1-5 .5.2 1.6-.6 2.4-1.6 1-1.4 1.9-1.7 3.3-1.1 3.2 1.4 6.4 1.6 6.4.5 0-.6.4-.9.9-.6 1.1.7 5.3-3.8 4.4-4.7-1.1-1.1.2-.8 3.5.9 1.8.8 3.2 1.9 3.2 2.3 0 .4 1.4.7 3.2.6 2.3-.1 3.2-.6 3.3-2.1.4-4 1.7-8.4 2.4-8 .4.3.8-.1.8-.9s-.4-1.5-.9-1.5c-1.3 0 .1-6.1 1.7-7.6 1-1.1 1.6-.9 3 .6 1.3 1.5 2.2 1.7 4.1 1 1.3-.5 2.4-.7 2.4-.4 0 .4.8 0 1.7-.7 1.5-1.2 1.6-1.2.8.1-.5.9.1.7 1.5-.5 1.3-1.1 2-1.4 1.6-.7-.7 1.1-.4 1.1 1.2.1 1.2-.7 1.8-1.7 1.6-2.1-.3-.4 0-.8.5-.8.6 0 1.1-.7 1.1-1.5s.4-1.5.9-1.5c.4 0 .7-1.1.6-2.5-.2-1.4.1-2.3.5-2 .5.3 1.4-.3 1.9-1.4.7-1.2 1.9-1.8 3.4-1.7 1.5.2 3.8-1.1 6.8-3.8 2.5-2.3 3.8-3.7 2.9-3.1-.9.5-.5 0 .8-1.3 1.3-1.2 2.1-2.6 1.7-3.1-.3-.5-.1-1.2.5-1.6.6-.4.7-1.2.4-1.8-.4-.7-.4-.9.1-.5.4.4 1.8-.4 3-1.8 1.8-2.1 2.6-2.4 4.1-1.6 1.1.6 1.8 1.4 1.8 1.9-.2 1.4 3.3 5.3 4.1 4.5.5-.4.6 0 .3.8-.4 1.2.5 1.5 5.3 1.5 3.3 0 5.9-.2 5.9-.6 0-.3.6-.6 1.3-.7.6 0 2.6-.4 4.2-.7 1.7-.4 3.5-.8 4.2-.9.7-.1 2.2-1.1 3.5-2.2 2.2-1.9 2.2-1.9.8 0-.9 1.2-1 1.7-.2 1.2.6-.4 1.9-2.1 2.8-3.8.9-1.8 1.1-2.7.4-2.3-.7.4-.4-.5.6-2.1 1.4-2.1 1.5-2.6.4-1.9-1.2.7-1.3.6-.4-.6.6-.8 1.2-4.5 1.3-8.3.1-3.8.5-7.4.8-7.9.3-.6.1-.7-.5-.3-.7.4-1.2.2-1.2-.3 0-.6.5-1.1 1.1-1.1.5 0 .8-.4.4-.9-.3-.5-.1-1.2.4-1.6.6-.3.7-1.3.4-2.2-.5-1.2-.3-1.4.7-.8 1 .6 1.2.3.8-1.3-.4-1.4-.1-2.5.9-3 .8-.5 1.4-1.2 1.4-1.5-.3-2 0-2.7 1.1-2.4.7.1 1.2-.3 1.3-.9 0-1.1 3.5-5 3.5-3.9 0 .4.7-.1 1.6-.9.8-.9 1.9-1.4 2.3-1.2.4.3 2-.6 3.7-2 1.6-1.4 2.3-2.2 1.5-1.8-.9.5-1.2.3-.7-.5.4-.6 1.5-1 2.4-.9.9.2 1.6-.2 1.5-.9-.2-.8.4-1 1.4-.6 1.1.4 1.4.3.9-.5-.4-.7-.1-1.3.8-1.3 2.5-.2 3-.4 4.5-1.3.9-.6 1.2-.5.8.2-.5.6 0 .8 1.3.5 2.3-.6 4.6-4.1 4.1-6.3-.1-.8-1-1.9-1.8-2.5-1.2-.9-1.3-1.6-.5-3.1.6-1 1.4-1.9 1.9-1.9.4 0 .7-.3.6-.6-.1-.4.9-1.6 2.2-2.9 1.9-1.8 3.4-2.2 8.5-2.1 3.4 0 6.5.3 7 .6s1.1.1 1.5-.5c.4-.6 1.2-.7 1.8-.4.7.4.9.4.5-.1-.4-.4-.1-1.3.8-1.9 1.3-1 1.3-1.6.3-3.9-.6-1.4-1.5-2.4-2-2.2-1.4.9.4-4 1.9-5.1 1.7-1.2 2.6-4.8 1-3.8-.5.3-.8-.2-.6-1.2.2-1.1-.2-1.8-.9-1.7-.6.1-1-.5-.8-1.5.2-.9.4-2 .4-2.3.2-1.1 3-1.9 4.6-1.3.8.4 1.3 1 1 1.4-.3.4.1 1.3.9 1.9 1.6 1.3 4.6.5 4.6-1.3 0-.6.9-1.2 2.1-1.3 2.5-.2 4.9-2.1 4.9-3.9 0-.8.5-1.4 1.1-1.4.5 0 .8.4.4.9-.3.5-.1 1.2.5 1.6 1.4.9 5.2-.4 4.5-1.6-.4-.5.1-1.2 1-1.5 1.3-.5 1.3-.9.3-2.2-1.1-1.3-1.1-1.4.2-.7 1 .5.8.1-.4-1.3-1-1.2-2.2-2-2.6-1.7-.4.2-.6-1.8-.6-4.5.1-2.8-.1-5-.5-5s-.9-.9-1.2-2.1c-.3-1.2-1-1.8-1.6-1.4-.8.4-.8-.1-.2-1.7.4-1.3.6-3 .3-3.8-.8-2.2-2.9-4-3.7-3.2-.5.4-.5.1-.1-.6s.2-2-.6-2.9c-1.1-1.4-1.1-1.6.2-.8 1.1.7 1 .2-.3-1.9-1-1.5-1.6-3.4-1.3-4.2.3-.8.1-1.4-.4-1.4-.6 0-.6-.9 0-2.4.5-1.3.6-2.7.3-3-1.2-1.1 5.3-2.7 9.5-2.3 3.1.3 4.2 0 4.2-1 0-.8.4-1.2.9-.8 1.3.7.7-7.1-.7-8.7-.6-.8-.8-3.8-.5-7.3.3-3.3.6-6.8.6-7.7.1-.9.3-1.5.6-1.3 1.1 1.1 2.9-1.9 2.5-4.1-.2-1.3.2-3.4 1-4.7 2.1-3.1 2.1-2.9.7-5.5-1.1-2.1-.9-2.6 1.3-4.9 1.4-1.4 2.3-3 1.9-3.6-.4-.6-.1-.7.6-.3.8.5 1.4 0 1.8-1.3.3-1.2 1.2-2.1 2.1-2.1.8 0 1.2-.3.9-.7-.4-.3-.1-1.3.6-2.1 1-1.3.9-1.4-.1-.8-1.1.7-1.1.4-.1-1.3 1.2-1.9 3-2.2 5.4-1.1.6.3 2.1.5 3.4.5 1.7 0 2.5-.6 2.7-2.3.3-1.4 0-2.1-.6-1.7-1 .6-1.2-.1-1.3-4.2 0-1.2-.4-2-.8-1.7-.5.3-.9.1-.9-.5 0-.5-.9-.8-2-.6-1.1.2-1.8 0-1.5-.6.4-.5.1-.9-.6-.9-.6 0-.9-.8-.6-2 .3-1.3.1-1.8-.6-1.3-.7.4-.8 0-.4-1.1.4-1 .3-1.5-.3-1.1-.6.3-1 .2-1-.4 0-.6-.7-.7-1.7-.4-1.1.4-1.4.3-.9-.5.4-.7.2-1.2-.5-1.2s-.9-.3-.5-.8c.4-.4 1.3-.7 1.9-.7 1.1 0 1.2-1.4.8-8.8-.1-1-.5-1.5-1.1-1.2-.6.3-1-.1-1-1 0-1.1-.5-1.5-1.6-1.1-.8.3-1.2.2-.9-.4.4-.6-.4-1.4-1.7-1.9-1.3-.6-1.9-1-1.4-1 .5-.1.3-.8-.4-1.6-1-1.3-.9-1.5.9-1.5 1.2 0 1.9-.4 1.6-1-.3-.6-.2-1 .3-1 1.5 0 2.3-3.1 1.2-4.5-.5-.6-.7-1.5-.3-1.8.3-.4.1-.7-.5-.7-2.1 0-1.2-2.5 1.3-3.7 1.9-.8 2.3-.8 1.8 0-.4.7 0 .6 1-.1.9-.8 2.1-1.1 2.7-.7.5.3 1 .1 1-.4 0-.6.6-1.1 1.4-1.1.8 0 1.6-.6 1.9-1.4.3-.8 1.6-1.2 3.1-1.1 1.4.2 2.4-.1 2.1-.6-.3-.4.6-1.1 2-1.5 1.4-.3 2.4-.9 2.1-1.2-.3-.3.2-1.1 1.2-1.9.9-.8 1.1-1.2.5-.8-1.7.8-1.6 0 0-1.7.8-.7 2-2.6 2.8-4.3.8-1.6 1.8-2.8 2.3-2.6.5.1 1.3-.3 1.7-1.1.6-.8.9-.9.9-.1 0 1.4 7.3.7 7.8-.7.2-.6.8-1 1.3-1 .6 0 .8.4.5.8-.3.5.4 1.6 1.4 2.5 1.3 1.1 1.8 2.5 1.5 4.7-.2 1.7 0 2.8.6 2.5.5-.4.9-.2.9.3s.7.9 1.5.9 1.1-.5.8-1c-.4-.6 0-.8.9-.4 1.7.6 5.3-2.5 4.1-3.6-.3-.4-.2-.7.3-.8 5.6-.4 9.7-4.3 9.9-9.4.2-3-.3-3.8-3.2-5.6-1.8-1.1-3-2.6-2.7-3.1 1-1.7 1.3-5.9.4-5.3-.4.3-1.1-.2-1.4-1.1-.4-1-.2-1.3.7-.8.8.5.7.2-.2-.9-.9-1.2-1-1.7-.2-1.7.7 0 1-.4.7-.8-.7-1.2 3.2-1.2 6.1-.1 3.4 1.3 6-.6 4.1-2.9-1-1.3-1-1.4 0-.8.6.4 1.3.2 1.3-.3.1-.6.2-1.5.3-2.1 0-.5.8-1.8 1.7-2.8 2.5-3 3.4-4.6 1.9-3.7-.9.5-1.1.4-.6-.4 1.4-2.2 1.3-5.8 0-5.8-.7 0-1 .5-.7 1.1.4.6-.1.5-1-.3-.9-.7-1.7-2.2-1.7-3.3 0-1.1-.5-1.8-1.2-1.6-1.7.6-4.1-1.9-3.3-3.3 1.4-2.2 1.1-6.8-.4-7.5-.9-.4-2-.6-2.4-.5-.5.1-.6-.3-.3-.8s-.1-1.2-1-1.5c-1-.4-1.3-1.3-.9-2.7.5-1.6.3-2-1.2-1.9-3.2.4-3.9 0-3.9-1.9 0-1.1.5-1.9 1-1.8.6.1 1.1-.8 1.2-2.1.1-1.2-.3-2.2-.8-2.2s-.6-.5-.3-1c.3-.6 0-1-.7-1.1-.7 0-2.2-.2-3.3-.4-1.1-.2-2.7.3-3.7 1.1-1.9 1.8-5.2 1.5-5.4-.4-.1-.6-.2-1.7-.3-2.3 0-.5-.5-.8-1-.4-.6.3-1.5-.4-2.1-1.5-.6-1.1-1.4-1.9-1.8-1.6-1 .6-3.2-2.1-2.4-3 .4-.4.1-.4-.5 0-.8.4-2.3-.3-3.6-1.8-1.9-2-2.6-2.3-3.7-1.3-1 .9-1.1.9-.6-.1.4-.6.4-1.2-.1-1.3-.4 0-2-.2-3.6-.4-1.5-.2-2.5 0-2.3.4.8 1.2-4.4 3.7-5.2 2.6-.9-1.3-5.3-1.4-4.5-.2.4.6-.1.8-1 .4-1-.3-1.7-.2-1.7.4 0 .6-.4.8-.9.5-.5-.4-1.2 0-1.5.6-.3.9-.9.8-2-.6-.8-1-1.3-2.3-1-2.7.3-.5 0-.9-.6-.9s-.8-.5-.4-1.2c.4-.6.3-.8-.4-.5-1.4.9-4.3-.3-3.6-1.4.3-.5-.2-1.2-1-1.5-.9-.3-2.2-1.9-3-3.5-.8-1.6-1-2.6-.4-2.3.5.4.3-.5-.6-1.8-.9-1.4-1.3-2.7-1-3.1.8-.8-1.8-.3-3.3.6-.7.5-1.3.5-1.3.1s-.6.1-1.4 1.2c-.8 1-1.8 1.5-2.3 1.1-.9-.9-1-1.4-1.2-5.1-.1-3-4.6-4.2-6.1-1.7-.5.9-1.2 1.5-1.7 1.4-.4-.1-.7.4-.5 1.1.1.7-.5 1.9-1.3 2.6-.8.7-1.5 1-1.5.7 0-.3-1.3-.1-3 .4-1.6.6-2.8 1.5-2.5 1.9 1.1 1.8-1.9 2.2-3.2.4-.8-1-1.7-1.9-2.1-1.9-.4 0-.6-.4-.4-.8.1-.5-.2-.6-.7-.3-1.9 1.2-4.2-.6-3.5-2.6.4-1.3.2-1.8-.4-1.4-.6.3-.6-.4.1-1.8.7-1.3 1.5-2.2 1.8-2 1 .6.5-6.3-.5-7.3-.6-.5-.6-.2-.1.7.8 1.3.6 1.3-.7.2-1.2-.9-2.2-1-3.5-.4-1 .5-2.4.7-3.2.4-.8-.3-1.1 0-.7.7.4.6.2.9-.7.5-.8-.3-1.7.2-2 1.1-.6 1.4-1.1 1.4-3.9.2-1.8-.8-3.9-1.2-4.5-1-.7.3-1.6-.2-1.9-1.1-.3-.8-1.2-1.2-2.1-.9-.9.4-1.4.2-1.1-.3.4-.5-1.7-1-4.5-1-6.3-.2-9.6-.6-9.4-1.4.1-.3-.2-.6-.8-.8-.5-.2-1.3-1.2-1.7-2.3-.4-1-1.4-1.9-2.3-1.9-.8 0-1.4-.5-1.3-1.2.2-.7-.4-1.3-1.2-1.3-2.9-.2-12.4-5.7-11.5-6.7.3-.2-1.3-.5-3.5-.6-2.6-.2-4.9-1.1-6.7-2.8-2-1.8-3.7-2.4-6.7-2.4-6.2.1-7.6-.2-7.6-1.7 0-.7-.7-1.6-1.5-1.9-.8-.4-1.2-1-.9-1.5.3-.5-.2-1.2-1-1.5-1.7-.7-2.2-4.9-.7-5.9.6-.3.8-1.4.6-2.5-.2-1.1.1-1.9.8-1.7.7.1 1.1-.4.9-1.1-.1-.8.2-1.1.7-.8 1.3.9 2.7-1.5 2.5-4.6 0-1.5.3-2.5.7-2.2.5.3 1.8-.3 2.8-1.3 1.7-1.5 2-3.8 1.1-6.3-.1-.3-.2-.8-.1-1.3 0-.4-.4-.7-1.1-.7-.6 0-.9-.3-.5-.6.3-.4-.1-1.3-.9-2.1s-1.3-2.7-1.2-4.2c.1-1.4-.2-3.3-.7-4.1-1.3-2.1-1.4-4.9-.1-4.7 1.3.3 2.6-7.2 1.4-7.9-.5-.3-.7-1.2-.4-2 .3-.8.1-1.4-.5-1.4s-.7-.5-.3-1.2c.4-.6.3-.8-.4-.4-1.7 1-4.4-2.4-3.8-5 .7-2.6-.2-5.6-1.4-4.9-.5.3-.6-.3-.3-1.4.3-1-.1-2.2-.8-2.6-.8-.6-1-.4-.4.5.5.9.4 1.1-.3.6-.7-.4-1.2-1.4-1.2-2.2 0-.8.4-1.3.9-1 .5.3.9-1 .8-2.8 0-1.9-.5-3.3-.9-3-.4.3-.8-.2-.8-1.1 0-.9-.4-1.3-1-1-.5.3-1 .1-1-.5s-.4-.8-1-.5c-.5.3-1-.1-1-1s-.4-1.4-.8-1.1c-1.3.8-1.2-3.7.1-5.3 1-1.2.9-1.3-.2-.6-1 .6-.8-.3.5-2.6 2.5-4.1 2.2-7.8-.4-5.7-1.3 1.1-1.4 1.1-.7-.2.8-1.3.7-1.3-.9 0s-1.8 1.2-1.4-1c.1-1.4 1.4-3.5 2.8-4.7l2.5-2.3-5.2.4c-5.7.5-6.9 0-5-2.2.9-1.3.9-1.4 0-.8-.9.5-1.1.2-.7-.8.3-.9 1-1.3 1.5-1.1.5.3 1.1-.6 1.5-2.1.8-3.1-1.2-4.9-3.4-3.2-2 1.7-5 1.7-5.6.1-.3-.8.1-1.6.9-1.9.8-.4 1.2-1 .9-1.5-.3-.5-.1-.9.3-.9.5 0 .9-.9 1-2 .2-1.8-.3-2-3.5-1.7-2.5.3-4.1-.1-5-1.2-.8-.9-1-1-.6-.2s.3 1.2-.3.8c-1.5-.9-.9-3.9 1.4-7.9 2.2-3.7 1.8-6-1.1-6.4-.9-.1-1.3.2-1 .8.3.5 0 .8-.7.7-2.3-.4-4.9 1.2-4.2 2.5.4.6 0 .5-.9-.2-1.7-1.4-1.5-3.4.6-6.1.9-1.2.8-1.3-.3-.6-1 .6-1.2.4-.6-.5.5-.8.9-2.4 1-3.5.1-2.7-3.3-2.7-4.7 0-.8 1.4-.8 1.6.3.9.8-.4.3.6-1.1 2.3-2.1 2.6-3.1 3.1-6.2 3-2.1-.1-3.8-.6-3.8-1 0-.5-.4-.5-1-.2-.5.3-1 .1-1-.5 0-.7-.7-1-1.5-.6-.8.3-1.4 0-1.2-.6.1-.7-1.8-1.2-5-1.3-2.9 0-5.3.3-5.3.7 0 .5-.8.4-1.9-.1-1-.6-2.1-.8-2.5-.6-.3.3-.4.2-.1-.2.2-.3-.7-1.7-2.1-3-2.8-2.5-3.9-3-2.8-1.1.4.7-.2.4-1.3-.7-2.1-2.2-2.6-4.5-.9-4.2.6.1 1-.4.9-1-.2-.7 0-1.2.5-1 .4.1 2-.8 3.5-2l2.8-2.2-2-2c-1.2-1.2-2.1-2.3-2.1-2.6 0-.3-.3-.5-.6-.4-.7.1-2.4-2.2-2.4-3.1 0-.3 1.3-1 2.8-1.6 2.4-.9 2.9-1.7 2.9-4.7 0-2-.3-3.5-.6-3.3-.8.5-3.1-2-2.5-2.7.2-.2-1-.4-2.7-.3-2.2.1-3.5.8-4.4 2.6-.7 1.4-1.1 2.9-.8 3.4.4.5.1.6-.5.2-1.1-.6-1.6.6-1.3 2.6.2 1.5-1.7.8-2.3-.8-.3-.8-1.1-1.2-1.7-.8-.7.4-1 .1-.7-.7.3-.8-.2-2-1.1-2.7-1.2-1-1.3-1.2-.1-.6 1.3.7 1.3.5.1-.9-.7-.9-1.9-1.7-2.6-1.7-1.3 0-3-2.8-2.7-4.3.3-1.1-1.3-.8-2.7.5-1.1 1-1.3 1-.7 0 .9-1.6.5-1.5-2.3.5zM84 193.4c0 .2-.8 1-1.7 1.7-1.6 1.3-1.7 1.2-.4-.4 1.3-1.6 2.1-2.1 2.1-1.3zm-11 10c0 .2-.8 1-1.7 1.7-1.6 1.3-1.7 1.2-.4-.4 1.3-1.6 2.1-2.1 2.1-1.3zm-11 10c0 .2-.8 1-1.7 1.7-1.6 1.3-1.7 1.2-.4-.4 1.3-1.6 2.1-2.1 2.1-1.3zM507 271c1.1 1.1 2 2.9 2 4 0 1.9.7 2 20.6 2h20.6l3.4 3.4c3 3 3.4 4 3.4 8.6s-.4 5.6-3.4 8.6l-3.4 3.4H509v16h4.6c3.9 0 5.1.5 8 3.4 3 3 3.4 4.1 3.4 8.4 0 3.5-.6 5.7-2.1 7.6-1.2 1.5-2 2.8-1.8 2.9.2.1 3.5 1.7 7.2 3.6 7.7 3.8 16.3 11.2 20.8 17.8l3 4.3h40.4c39.2 0 40.6.1 42.5 2 1.9 1.9 2 3.3 2 32 0 29.3 0 30 2 30 1.1 0 2.9.9 4 2 1.8 1.8 2 3.3 2 14 0 17.3 2.6 16-32 16s-32 1.3-32-16c0-10.7.2-12.2 2-14 1.1-1.1 2.9-2 4-2 1.8 0 2-.7 2-7.4 0-14.5-2.4-16.6-19.3-16.6h-10.4l-1.3 4.7c-3.7 13.7-15.6 28.8-27.7 35.1-8.9 4.7-14.5 6.2-25.3 6.9-16.2 1-30.3-4.2-42.2-15.5-3.2-3-7.2-7.7-8.9-10.3l-3.1-4.9H397v18.7c0 17-.2 19.1-2 22.1-3 4.8-7.5 7.2-14 7.2s-11-2.4-14-7.2c-1.9-3.2-2-5.2-2-68.8 0-63.6.1-65.6 2-68.8 3-4.8 7.5-7.2 14-7.2s11 2.4 14 7.2c1.8 2.9 2 5.1 2 18V357h60l6.9-5.8c3.8-3.2 9.4-7 12.6-8.5l5.6-2.8-2.6-3c-1.9-2.4-2.5-4.2-2.5-8.1 0-4.4.4-5.4 3.4-8.4 2.9-2.9 4.1-3.4 8-3.4h4.6v-16h-41.2l-3.4-3.4c-3-3-3.4-4-3.4-8.6s.4-5.6 3.4-8.6l3.4-3.4h20.6c19.9 0 20.6-.1 20.6-2 0-3.3 3.5-6 8-6 2.7 0 4.7.7 6 2zm114.2 233.7c11.4 18.4 17.2 29.3 20.9 39.4 5.4 14.8 3.2 27.5-6.7 37.3-20.3 20.4-55.7 7.3-57.2-21.1-.5-9 1.2-14.9 8.8-29.8 6.8-13.3 23-39.5 24.5-39.5.6 0 4.9 6.2 9.7 13.7z"/></svg>