<svg version="1" xmlns="http://www.w3.org/2000/svg" width="320" height="320" viewBox="0 0 240.000000 240.000000"><path d="M119 20.2c0 2.8-5.6 16.5-11.5 28.3-3.1 6.1-10.4 17.9-16.6 26.5-17.2 23.9-20.5 28.9-25.3 38.5-7.6 15.5-9.9 25.1-9.7 41.5.2 11 .5 14.1 2.1 17.1.7 1.3 1.2 2.5 1.1 2.7-.7.7 4.5 13.5 5.6 13.9.7.3 1.3 1.4 1.3 2.4 0 1.1.7 2.2 1.5 2.5.8.4 1.5 1.2 1.5 1.9s1.3 2.3 2.9 3.6c1.6 1.3 2.7 2.7 2.5 3.1-.3.4-.1.8.3.8.5 0 2.5 1.5 4.4 3.3 5.8 5.3 7.4 6.4 8.7 5.9.7-.2 1.2.3 1.2 1.2 0 .9.8 1.6 1.9 1.6 1 0 2.4.7 3.1 1.5.7.8 2.8 1.7 4.9 2 2 .3 4.3.9 5.1 1.3.8.5 3.3.9 5.5 1.1 2.2.1 4.1.6 4.2.9.4.9 13.2.4 15.3-.4.8-.4 2.7-.8 4.1-1 1.5-.1 4.4-1.1 6.5-2.2 2.2-1.1 4.4-2.1 4.9-2.3.6-.2.9-.8.7-1.3-.2-.5.4-.6 1.1-.3.8.3 3-.5 5-1.8 1.9-1.3 3.7-2.1 4.1-1.8.3.4.6-.1.6-1.1 0-.9.4-1.5.8-1.2 1.2.7 11.4-9.1 15.4-14.9 15.7-22.9 16-54.4.8-82.2-4.1-7.5-18.6-29.4-20.1-30.3-.4-.3-4.5-6.2-9.1-13.1-8.9-13.2-17.2-29.3-20.8-40-2.6-7.7-3.9-10.2-4-7.7z"/></svg>